<?xml version="1.0" encoding="UTF-8" standalone="no"?><!DOCTYPE svg PUBLIC "-//W3C//DTD SVG 1.1//EN" "http://www.w3.org/Graphics/SVG/1.1/DTD/svg11.dtd">
<svg width="100%" height="100%" viewBox="0 0 71 71" version="1.1" xmlns="http://www.w3.org/2000/svg"
     xmlns:xlink="http://www.w3.org/1999/xlink" xml:space="preserve"
     style="fill-rule:evenodd;clip-rule:evenodd;stroke-linejoin:round;stroke-miterlimit:2;"><g><path d="M70.074,60.814c0,5.113 -4.146,9.26 -9.261,9.26l-51.552,0c-5.114,0 -9.261,-4.146 -9.261,-9.26l0,-51.553c0,-5.114 4.146,-9.261 9.261,-9.261l51.552,0c5.115,0 9.261,4.146 9.261,9.261l0,51.553Z" style="fill-rule:nonzero;"/><g><path d="M15.978,46.397l0.14,0.409l0.233,0.349l0.292,0.339l0.337,0.291l0.362,0.292l0.408,0.232l0.455,0.234l0.921,0.303l0.91,0.21l0.897,0.059l0.198,-0.035l0.175,-0.023l0.338,-0.058l0,-6.601l26.879,0l0,6.658l0.338,0.082l0.375,0.034l0.42,0l0.466,-0.058l0.909,-0.175l0.921,-0.351l0.467,-0.198l0.396,-0.269l0.372,-0.279l0.339,-0.292l0.292,-0.339l0.232,-0.349l0.141,-0.408l0.081,-0.396l2.007,-18.716l-1.772,-16.49l-0.151,-0.757l-0.199,-0.688l-0.257,-0.642l-0.339,-0.596l-0.431,-0.559l-0.548,-0.491l-0.63,-0.432l-0.745,-0.372l-0.97,-0.433l-0.897,-0.314l-0.104,-0.035l-1.004,-0.303l-1.003,-0.292l-0.104,-0.023l-1.937,-0.384l-0.688,-0.094l-1.341,-0.198l-2.029,-0.198l-2.041,-0.116l-3.767,-0.141l-0.269,-0.011l-4.068,0.151l-2.042,0.116l-2.006,0.198l-1.003,0.152l-1.025,0.14l-1.004,0.175l-0.443,0.093l-0.559,0.14l-0.968,0.292l-0.805,0.245l-0.198,0.058l-1.004,0.35l-0.979,0.433l-0.745,0.372l-0.63,0.432l-0.537,0.491l-0.432,0.559l-0.349,0.596l-0.28,0.642l-0.177,0.688l-0.139,0.757l-1.771,16.454l1.993,18.693l0.096,0.397Zm30.528,-10.763l-0.127,0.373l-0.187,0.326l-0.245,0.291l-0.292,0.245l-0.35,0.187l-0.373,0.117l-0.432,0.046l-0.397,-0.046l-0.385,-0.117l-0.337,-0.187l-0.328,-0.245l-0.244,-0.291l-0.186,-0.326l-0.094,-0.373l-0.058,-0.408l0.058,-0.408l0.094,-0.362l0.186,-0.361l0.244,-0.292l0.328,-0.245l0.337,-0.185l0.385,-0.105l0.397,-0.059l0.432,0.059l0.373,0.105l0.35,0.185l0.292,0.245l0.245,0.292l0.187,0.361l0.127,0.362l0.035,0.408l-0.035,0.408Zm4.805,0l-0.116,0.373l-0.186,0.326l-0.245,0.291l-0.315,0.245l-0.314,0.187l-0.408,0.117l-0.386,0.046l-0.022,0l-0.397,-0.046l-0.372,-0.117l-0.351,-0.187l-0.291,-0.245l-0.269,-0.291l-0.197,-0.326l-0.094,-0.373l-0.036,-0.408l0.036,-0.408l0.094,-0.362l0.197,-0.361l0.269,-0.292l0.291,-0.245l0.351,-0.185l0.372,-0.105l0.397,-0.059l0.022,0l0.386,0.059l0.408,0.105l0.314,0.185l0.315,0.245l0.245,0.292l0.186,0.361l0.116,0.362l0.047,0.408l-0.047,0.408Zm-10.076,-24.186l0.035,-0.245l0.094,-0.268l0.139,-0.246l0.198,-0.245l0.176,-0.187l0.222,-0.162l0.233,-0.106l0.21,-0.034l7.335,0l0.384,0.058l0.233,0.083l0.245,0.128l0.27,0.221l0.209,0.279l0.163,0.339l0.082,0.433l1.504,15.159l0.047,0.513l-0.081,0.385l-0.164,0.269l-0.209,0.187l-0.245,0.105l-0.258,0.058l-0.43,0.023l-2.287,0l-2.215,0l-2.624,0l-1.877,0l-0.315,-0.105l-0.292,-0.186l-0.222,-0.187l-0.175,-0.211l-0.256,-0.466l-0.129,-0.385l0,-15.207Zm-10.215,-2.926l8.618,0l0,29.351l-4.315,0l-4.303,0l0,-29.351Zm-7.929,27.088l-0.094,0.373l-0.197,0.35l-0.233,0.291l-0.304,0.245l-0.35,0.187l-0.361,0.117l-0.408,0.046l-0.012,0l-0.408,-0.046l-0.386,-0.117l-0.349,-0.187l-0.292,-0.245l-0.232,-0.291l-0.188,-0.35l-0.116,-0.373l-0.047,-0.408l0.047,-0.396l0.116,-0.386l0.188,-0.349l0.232,-0.293l0.292,-0.256l0.349,-0.175l0.386,-0.14l0.408,-0.023l0.012,0l0.408,0.023l0.361,0.14l0.35,0.175l0.304,0.256l0.233,0.293l0.197,0.349l0.094,0.386l0.058,0.396l-0.058,0.408Zm4.769,0l-0.105,0.373l-0.198,0.35l-0.232,0.291l-0.292,0.245l-0.326,0.187l-0.374,0.117l-0.396,0.046l-0.407,-0.046l-0.374,-0.117l-0.35,-0.187l-0.291,-0.245l-0.245,-0.291l-0.174,-0.35l-0.117,-0.373l-0.023,-0.408l0.023,-0.396l0.117,-0.386l0.174,-0.349l0.245,-0.293l0.291,-0.256l0.35,-0.175l0.374,-0.14l0.407,-0.023l0.396,0.023l0.374,0.14l0.326,0.175l0.292,0.256l0.232,0.293l0.198,0.349l0.105,0.386l0.046,0.396l-0.046,0.408Zm-10.227,-9.352l1.645,-14.705l0.105,-0.536l0.175,-0.409l0.222,-0.302l0.244,-0.176l0.211,-0.141l0.151,-0.058l0.139,-0.023l7.313,0l0.231,0.023l0.246,0.081l0.245,0.13l0.244,0.163l0.198,0.197l0.164,0.234l0.115,0.244l0.047,0.303l0,15.568l-0.104,0.291l-0.105,0.245l-0.163,0.187l-0.151,0.187l-0.222,0.141l-0.244,0.104l-0.561,0.187l-1.843,0l-2.473,0l-2.331,0l-1.666,0l-0.351,-0.023l-0.35,-0.082l-0.35,-0.15l-0.304,-0.198l-0.233,-0.269l-0.164,-0.35l-0.104,-0.409l0.024,-0.454Z" style="fill:#fff;"/><rect x="26.892" y="47.353" width="16.735" height="2.449" style="fill:#fff;"/><path d="M53.492,61.708l-2.368,-2.694l5.038,0l-2.565,-2.787l-4.921,0l-1.365,-1.632l-2.576,0l0.979,1.632l-10.507,0l-10.472,0l0.991,-1.644l-2.508,0.012l-1.41,1.632l-5.411,0l-2.636,2.834l5.586,0l-2.31,2.647l-5.458,0l-3.625,3.999l5.62,-0.01l-1.47,1.69l5.854,0l1.027,-1.69l16.221,-0.024l16.198,-0.023l1.118,1.866l6.064,0l-1.645,-1.878l5.177,0l-3.73,-3.93l-4.896,0Zm-18.285,0l-13.808,0l1.61,-2.658l12.197,-0.013l12.197,-0.011l1.621,2.682l-13.817,0Z" style="fill:#fff;"/><rect x="23.347" y="43.189" width="2.298" height="10.764" style="fill:#fff;"/><rect x="44.687" y="43.189" width="2.297" height="10.764" style="fill:#fff;"/></g></g></svg>