<?xml version="1.0" standalone="no"?>
<!DOCTYPE svg PUBLIC "-//W3C//DTD SVG 20010904//EN"
 "http://www.w3.org/TR/2001/REC-SVG-20010904/DTD/svg10.dtd">
<svg version="1.0" xmlns="http://www.w3.org/2000/svg"
 width="700.000000pt" height="700.000000pt" viewBox="0 0 700.000000 700.000000"
 preserveAspectRatio="xMidYMid meet">
<metadata>
Created by potrace 1.11, written by Peter Selinger 2001-2013
</metadata>
<g transform="translate(0.000000,700.000000) scale(0.100000,-0.100000)"
fill="#000000" stroke="none">
<path d="M795 6993 c-370 -52 -667 -316 -767 -684 l-23 -84 0 -2675 0 -2675
22 -87 c85 -333 324 -572 672 -671 l76 -22 2615 -3 c1771 -2 2644 0 2706 7
209 24 400 117 548 267 115 116 189 247 239 423 l22 76 3 2615 c2 1821 0 2644
-8 2709 -43 373 -306 679 -675 783 l-80 23 -2660 1 c-1463 1 -2673 -1 -2690
-3z m2910 -373 c407 -17 628 -40 870 -90 213 -44 456 -130 566 -201 102 -65
179 -175 213 -304 9 -33 57 -433 106 -890 l90 -829 -100 -932 c-55 -512 -105
-947 -111 -965 -39 -115 -200 -218 -390 -250 -43 -7 -94 -9 -121 -5 l-48 7 0
330 0 329 -1325 0 -1325 0 0 -324 c0 -367 8 -336 -89 -336 -75 0 -200 32 -278
71 -71 36 -160 118 -180 168 -9 21 -53 396 -115 970 l-100 936 87 810 c48 446
93 841 101 879 16 80 58 175 103 230 79 99 230 178 481 254 273 83 552 122
1025 141 282 12 281 12 540 1z m-1175 -4410 l0 -530 -115 0 -115 0 0 530 0
530 115 0 115 0 0 -530z m2100 0 l0 -531 -112 3 -113 3 -3 528 -2 527 115 0
115 0 0 -530z m-330 0 l0 -120 -825 0 -825 0 0 120 0 120 825 0 825 0 0 -120z
m-1770 -596 c0 -4 -20 -40 -45 -80 l-45 -74 1030 0 c567 0 1030 2 1030 5 0 2
-19 35 -41 72 -23 38 -43 71 -46 76 -2 4 53 7 124 7 l128 0 65 -80 65 -80 245
0 245 -1 123 -134 c67 -74 122 -136 122 -139 0 -3 -108 -7 -241 -8 l-241 -3
112 -127 111 -128 243 0 242 0 181 -192 181 -193 -250 -5 -250 -5 76 -87 c42
-47 76 -89 76 -92 0 -4 -134 -5 -297 -4 l-297 3 -55 94 -56 94 -899 -7 c-495
-3 -1213 -6 -1597 -6 l-697 0 -49 -80 -48 -79 -288 -1 -289 0 31 38 c17 20 47
56 67 80 l37 42 -272 0 c-149 0 -271 2 -271 5 0 3 80 93 177 200 l177 195 270
1 271 0 105 121 c58 67 106 125 108 129 2 5 -118 10 -266 11 l-269 3 126 137
126 137 270 1 270 2 68 79 68 79 120 0 c65 0 119 -3 119 -6z"/>
<path d="M3060 4715 l0 -1445 425 0 425 0 0 1445 0 1445 -425 0 -425 0 0
-1445z"/>
<path d="M1977 6002 c-61 -37 -65 -53 -132 -652 -103 -906 -109 -963 -101
-1005 10 -50 59 -100 114 -114 28 -8 178 -11 474 -9 410 3 435 4 472 23 22 11
49 33 60 48 21 28 21 38 24 824 2 795 2 795 -19 829 -11 19 -38 43 -60 54 -36
19 -60 20 -421 20 -345 -1 -386 -2 -411 -18z"/>
<path d="M4164 6010 c-27 -11 -82 -75 -89 -103 -3 -12 -4 -371 -3 -797 l3
-775 25 -37 c14 -20 41 -46 61 -58 36 -19 52 -20 503 -20 501 0 520 2 546 51
7 12 12 43 11 68 -2 100 -152 1558 -162 1584 -15 37 -61 74 -107 87 -45 12
-757 13 -788 0z"/>
<path d="M2010 3713 c-168 -72 -156 -324 18 -373 55 -15 82 -12 139 14 76 36
108 88 108 176 0 88 -32 140 -108 176 -59 27 -106 29 -157 7z"/>
<path d="M2473 3706 c-39 -18 -58 -35 -78 -71 -40 -67 -43 -120 -12 -188 64
-141 256 -153 338 -20 19 30 24 52 24 104 0 56 -4 72 -29 108 -34 49 -108 91
-158 91 -18 0 -56 -11 -85 -24z"/>
<path d="M4305 3706 c-137 -60 -155 -256 -30 -335 91 -57 179 -49 251 23 74
73 80 171 17 254 -48 63 -163 91 -238 58z"/>
<path d="M4774 3701 c-64 -30 -97 -81 -102 -157 -5 -78 8 -112 59 -158 71 -64
158 -70 244 -15 114 73 113 240 -3 320 -47 32 -141 37 -198 10z"/>
<path d="M2218 1093 c-95 -155 -100 -164 -96 -169 3 -2 612 -3 1355 -2 l1350
3 -76 127 -76 127 -1202 1 -1202 0 -53 -87z"/>
</g>
</svg>
